HIERARCHY
ROOT root
{
	OFFSET 0.000000 0.000000 0.000000
	CHANNELS 6 Xposition Yposition Zposition Zrotation Yrotation Xrotation
	JOINT lhip
	{
		OFFSET 0.058581 -0.082280 -0.017664
		CHANNELS 3 Zrotation Yrotation Xrotation
		JOINT lknee
		{
			OFFSET 0.043451 -0.386469 0.008037
			CHANNELS 3 Zrotation Yrotation Xrotation
			JOINT lankle
			{
				OFFSET -0.014790 -0.426874 -0.037428
				CHANNELS 3 Zrotation Yrotation Xrotation
				JOINT ltoe
				{
					OFFSET 0.041054 -0.060286 0.122042
					CHANNELS 3 Zrotation Yrotation Xrotation
					End Site
					{
						OFFSET 0.000000 0.000000 0.000000
					}
				}
			}
		}
	}
	JOINT rhip
	{
		OFFSET -0.060310 -0.090513 -0.013543
		CHANNELS 3 Zrotation Yrotation Xrotation
		JOINT rknee
		{
			OFFSET -0.043257 -0.383688 -0.004843
			CHANNELS 3 Zrotation Yrotation Xrotation
			JOINT rankle
			{
				OFFSET 0.019056 -0.420046 -0.034562
				CHANNELS 3 Zrotation Yrotation Xrotation
				JOINT rtoe
				{
					OFFSET -0.034840 -0.062106 0.130323
					CHANNELS 3 Zrotation Yrotation Xrotation
					End Site
					{
						OFFSET 0.000000 0.000000 0.000000
					}
				}
			}
		}
	}
	JOINT lowerback
	{
		OFFSET 0.004439 0.124404 -0.038385
		CHANNELS 3 Zrotation Yrotation Xrotation
		JOINT upperback
		{
			OFFSET 0.004488 0.137956 0.026820
			CHANNELS 3 Zrotation Yrotation Xrotation
			JOINT chest
			{
				OFFSET -0.002265 0.056032 0.002855
				CHANNELS 3 Zrotation Yrotation Xrotation
				JOINT lowerneck
				{
					OFFSET -0.013390 0.211636 -0.033468
					CHANNELS 3 Zrotation Yrotation Xrotation
					JOINT upperneck
					{
						OFFSET 0.010113 0.088937 0.050410
						CHANNELS 3 Zrotation Yrotation Xrotation
						End Site
						{
							OFFSET 0.000000 0.000000 0.000000
						}
					}
				}
				JOINT lclavicle
				{
					OFFSET 0.071702 0.114000 -0.018898
					CHANNELS 3 Zrotation Yrotation Xrotation
					JOINT lshoulder
					{
						OFFSET 0.122921 0.045205 -0.019046
						CHANNELS 3 Zrotation Yrotation Xrotation
						JOINT lelbow
						{
							OFFSET 0.255332 -0.015649 -0.022946
							CHANNELS 3 Zrotation Yrotation Xrotation
							JOINT lwrist
							{
								OFFSET 0.265709 0.012698 -0.007375
								CHANNELS 3 Zrotation Yrotation Xrotation
								End Site
								{
									OFFSET 0.000000 0.000000 0.000000
								}
							}
						}
					}
				}
				JOINT rclavicle
				{
					OFFSET -0.082954 0.112472 -0.023707
					CHANNELS 3 Zrotation Yrotation Xrotation
					JOINT rshoulder
					{
						OFFSET -0.113228 0.046853 -0.008472
						CHANNELS 3 Zrotation Yrotation Xrotation
						JOINT relbow
						{
							OFFSET -0.260127 -0.014369 -0.031269
							CHANNELS 3 Zrotation Yrotation Xrotation
							JOINT rwrist
							{
								OFFSET -0.269108 0.006794 -0.006027
								CHANNELS 3 Zrotation Yrotation Xrotation
								End Site
								{
									OFFSET 0.000000 0.000000 0.000000
								}
							}
						}
					}
				}
			}
		}
	}
}
MOTION
Frames: 13
Frame Time: 0.033333
0.069095 -0.526007 0.988852 174.516017 -1.218206 85.011607 -0.641353 3.590414 7.568312 -2.490476 -7.977063 -0.043099 2.520780 7.669903 -18.859108 0.000000 -0.000000 0.000000 -0.452660 0.294252 -0.479487 -0.074196 -0.140748 13.238541 3.450044 -3.281133 -18.009349 0.000000 -0.000000 0.000000 3.440664 -0.319973 7.378668 -0.687341 0.293812 -1.558381 -2.464404 -0.596198 3.677747 2.830251 -7.736476 -3.111037 0.296423 -14.061126 6.176261 -25.736874 1.033168 0.514524 -62.303198 -8.643134 12.671713 9.778116 -29.760187 10.982656 -0.319359 -5.006210 -0.910416 21.266955 6.731623 -1.901818 63.750280 5.336930 15.690218 -4.558008 21.718026 4.889984 5.280065 4.543675 -4.094094 
0.068045 -0.524740 0.988825 174.897752 -1.405990 86.006280 -0.941895 3.118547 6.502675 -2.664071 -7.949019 0.063951 2.697197 7.764784 -18.638205 0.000000 -0.000000 0.000000 -0.891277 0.238360 -0.993997 0.314826 0.170651 12.451063 3.182363 -4.166957 -17.650825 0.000000 -0.000000 0.000000 3.034749 0.016478 5.699410 -0.666509 -0.008630 -1.380837 -2.350274 -0.831619 3.694121 2.933325 -7.956306 -2.761612 0.159476 -14.093297 6.200621 -25.785546 1.239122 0.873855 -62.175200 -8.603991 12.679201 9.653712 -29.768638 11.503138 0.459810 -4.712505 -1.267145 21.868290 6.520904 -1.404151 63.379955 5.028723 16.633581 -4.194778 21.829058 7.371533 3.186758 4.251215 -1.818223 
0.068239 -0.522984 0.989101 176.034765 -1.477919 87.576005 -0.966666 2.075711 4.636531 -3.037401 -7.852323 0.518133 2.809170 7.528622 -18.317118 0.000000 -0.000000 0.000000 -0.973642 -0.184993 -2.009745 0.462510 0.035881 11.536495 2.570636 -5.111268 -17.105553 0.000000 -0.000000 0.000000 2.473564 0.295418 3.224709 -0.494788 -0.663352 -1.114313 -2.245277 -1.265336 3.288374 2.957734 -8.229950 -1.623873 0.281191 -14.000399 5.937789 -25.886278 1.495398 1.703604 -61.881087 -8.464400 12.779847 9.762445 -29.659046 11.468463 0.334297 -4.612253 -1.392953 22.474576 6.038170 -0.741136 63.150731 4.705178 16.927322 -4.299348 21.919882 7.673495 3.309262 4.134144 -2.166453 
0.067527 -0.522372 0.989636 176.563482 -1.551160 88.519007 -1.056519 1.580917 3.647566 -3.273924 -7.464720 0.546375 3.048451 7.144378 -18.258632 0.000000 -0.000000 0.000000 -1.027010 -0.400771 -2.645129 0.477742 -0.199693 10.911137 2.388963 -5.714585 -16.698148 0.000000 -0.000000 0.000000 2.103042 0.403301 1.922835 -0.473931 -1.028473 -1.171165 -2.202091 -1.553418 3.089495 2.976397 -8.213226 -1.498303 0.233071 -13.832015 6.029384 -25.682464 1.793693 2.130467 -62.077723 -8.424984 12.766197 10.054972 -29.069914 11.579457 0.250984 -4.732974 -1.486658 22.486177 5.865169 -0.312183 63.536450 4.854308 17.199947 -4.349272 21.394362 7.966318 3.397299 4.215251 -2.379355 
0.067203 -0.522384 0.989651 176.655455 -1.555528 88.610336 -1.052492 1.485104 3.591825 -3.315743 -7.514201 0.459438 3.096975 7.077681 -18.192947 0.000000 -0.000000 0.000000 -1.011998 -0.382612 -2.706275 0.449453 -0.148183 10.837203 2.349146 -5.850264 -16.700972 0.000000 -0.000000 0.000000 2.028501 0.413285 1.782038 -0.477923 -1.050021 -1.213912 -2.238932 -1.613346 3.162509 3.104799 -8.122237 -1.650264 0.190878 -13.862933 6.211327 -25.559537 1.855455 2.118956 -62.113958 -8.458193 12.791257 10.058589 -28.856951 11.709884 0.173805 -4.763376 -1.482498 22.506413 5.831674 -0.224249 63.615725 5.044871 17.267501 -4.345809 21.180126 7.909349 3.422638 4.190614 -2.435311 
0.066060 -0.522678 0.989732 176.741262 -1.542483 88.721005 -1.118403 1.390960 3.348261 -3.405153 -7.403176 0.647531 3.241134 7.020426 -18.173725 0.000000 -0.000000 0.000000 -1.036079 -0.254482 -2.864385 0.457285 -0.098770 10.835706 2.312070 -6.070316 -16.685626 0.000000 -0.000000 0.000000 2.088779 0.434645 1.682998 -0.501064 -1.015853 -1.280072 -2.353195 -1.640485 3.298776 3.132988 -8.073713 -1.958743 0.188896 -13.871696 6.251185 -25.510114 1.729219 2.178960 -62.039088 -8.568923 12.758443 10.088157 -28.398645 11.694279 0.054846 -4.708387 -1.389781 22.464492 5.997373 -0.025698 63.697509 5.177834 17.231837 -4.544276 21.101011 7.822110 3.479908 4.105348 -2.403403 
0.064965 -0.522543 0.989891 176.794571 -1.544691 88.702929 -1.205522 1.486057 3.304757 -3.445373 -7.361720 0.744149 3.309845 6.956421 -18.091808 0.000000 -0.000000 0.000000 -1.117453 -0.260389 -2.864500 0.470192 -0.187797 10.848329 2.377405 -5.992446 -16.653161 0.000000 -0.000000 0.000000 2.125436 0.406687 1.909754 -0.549688 -0.997697 -1.535137 -2.367246 -1.564589 3.246400 3.084040 -8.160711 -2.024887 0.205488 -13.935648 6.369142 -25.473133 1.623654 2.294219 -62.005139 -8.548794 12.674147 10.081922 -27.833368 11.704449 0.013088 -4.768835 -1.278535 22.267426 6.145875 -0.107829 63.874688 4.987637 17.131767 -4.559726 20.853695 7.952169 3.497493 4.123200 -2.320233 
0.064370 -0.521691 0.989872 176.957133 -1.585862 88.610283 -1.262095 1.552575 3.484027 -3.476023 -7.548712 0.643310 3.429446 6.772893 -18.060771 0.000000 -0.000000 0.000000 -1.164857 -0.419247 -2.709095 0.411083 -0.137508 10.840858 2.336732 -6.043647 -16.748531 0.000000 -0.000000 0.000000 2.058912 0.373200 1.969498 -0.623123 -1.092216 -1.600445 -2.424136 -1.572390 3.315838 3.145167 -8.068628 -2.082979 0.287815 -13.891643 6.433144 -25.321532 1.624839 2.345924 -61.910343 -8.458158 12.590838 9.990079 -27.483300 11.860944 0.120753 -4.780183 -1.288452 22.260669 6.201129 -0.093841 63.892150 4.971929 17.143914 -4.426496 20.782156 8.107835 3.490039 4.056106 -2.284279 
0.063847 -0.521212 0.989903 177.119997 -1.571600 88.600006 -1.261862 1.595042 3.446688 -3.540261 -7.522946 0.764690 3.388938 6.743044 -17.962433 0.000000 -0.000000 0.000000 -1.158260 -0.481126 -2.667669 0.365120 -0.167471 10.826514 2.321169 -6.075964 -16.749532 0.000000 -0.000000 0.000000 1.991497 0.285391 1.987376 -0.649816 -1.191610 -1.745824 -2.457105 -1.697780 3.475229 3.325562 -7.932186 -2.234381 0.121951 -13.852810 6.637005 -25.207691 1.861681 2.172681 -61.849233 -8.353988 12.495594 9.856503 -27.047185 12.011100 0.073155 -4.815260 -1.139979 22.235489 5.971497 -0.181914 63.832729 5.347829 17.417184 -3.996553 20.459198 8.509226 3.526568 4.184672 -2.007994 
0.063254 -0.520337 0.989708 177.223645 -1.539575 88.641341 -1.209099 1.628321 3.493238 -3.626561 -7.595841 0.659065 3.399028 6.719617 -17.846873 0.000000 -0.000000 0.000000 -1.184166 -0.604007 -2.693173 0.387931 -0.157317 10.844775 2.300110 -6.091258 -16.799994 0.000000 -0.000000 0.000000 2.038010 0.305141 1.976778 -0.689399 -1.178483 -1.910814 -2.522421 -1.677919 3.452310 3.301256 -8.007254 -2.119789 0.145321 -13.887662 6.749346 -25.177501 1.910579 2.201142 -61.709710 -8.214786 12.436506 9.680103 -26.680978 12.172815 0.100797 -4.788205 -1.078553 22.119432 5.980783 -0.075772 63.825404 5.134241 17.471213 -3.867722 20.598949 8.744185 3.503265 4.209561 -2.010613 
0.062689 -0.519938 0.989537 177.248310 -1.558486 88.671616 -1.252571 1.616757 3.456503 -3.664918 -7.598960 0.692595 3.420822 6.698712 -17.704461 0.000000 -0.000000 0.000000 -1.259339 -0.589637 -2.836197 0.398384 -0.228152 11.052201 2.304364 -6.092293 -16.844273 0.000000 -0.000000 0.000000 2.042267 0.274363 2.190825 -0.744526 -1.137216 -2.257266 -2.580151 -1.678002 3.434664 3.242034 -7.916920 -2.028449 0.124861 -13.795172 6.940652 -25.091156 2.022154 2.254005 -61.707212 -8.076195 12.375864 9.692730 -26.386968 12.297492 0.085264 -4.931258 -1.011456 22.034876 5.826872 -0.078492 63.847330 5.126276 17.598163 -3.690053 20.566025 9.116917 3.539869 4.340018 -1.894879 
0.062257 -0.519244 0.989478 177.338711 -1.595854 88.611133 -1.309173 1.671955 3.532550 -3.684716 -7.629687 0.731683 3.462185 6.653412 -17.566873 0.000000 -0.000000 0.000000 -1.280414 -0.654830 -2.863803 0.297544 -0.223850 11.258727 2.289109 -6.065704 -16.906574 0.000000 -0.000000 0.000000 2.051976 0.267463 2.314119 -0.801409 -1.133523 -2.363999 -2.649479 -1.625824 3.396056 3.137139 -7.877180 -1.799816 0.177395 -13.651291 6.887949 -25.138084 1.891441 2.459223 -61.584109 -8.024398 12.265341 9.840194 -26.111617 12.200813 0.020387 -4.933065 -0.985694 21.979444 5.934044 0.024655 63.926342 4.955788 17.532196 -3.769608 20.644448 9.213244 3.671350 4.247236 -1.907661 
0.061994 -0.518940 0.989574 177.403481 -1.611469 88.629459 -1.323713 1.633494 3.472774 -3.744566 -7.638670 0.816762 3.530172 6.624934 -17.533535 0.000000 -0.000000 0.000000 -1.288701 -0.651325 -2.902221 0.263010 -0.207298 11.329535 2.292741 -6.155728 -16.845890 0.000000 -0.000000 0.000000 2.030982 0.263483 2.329997 -0.830885 -1.112186 -2.480708 -2.711112 -1.649311 3.470197 3.141105 -7.848279 -1.723596 0.111575 -13.563892 6.932014 -25.123432 1.986539 2.431947 -61.471542 -7.999010 12.228727 9.721580 -25.984391 12.306475 -0.043519 -4.789894 -0.996355 21.969521 5.854937 0.008397 63.912615 5.052863 17.601073 -3.621172 20.538960 9.332660 3.724071 4.127837 -1.873425 
